<?xml version="1.0" encoding="utf-8"?>
<!-- Generator: Adobe Illustrator 28.0.0, SVG Export Plug-In . SVG Version: 6.00 Build 0)  -->
<svg version="1.1" id="Ebene_1" xmlns="http://www.w3.org/2000/svg" xmlns:xlink="http://www.w3.org/1999/xlink" x="0px" y="0px"
	 viewBox="0 0 500 500" style="enable-background:new 0 0 500 500;" xml:space="preserve">
<style type="text/css">
	.st0{fill:#2A3049;}
</style>
<g>
	<g id="Persona">
		<g>
			<path class="st0" d="M330.8,249.2c0,44-35.5,79.4-79.4,79.4s-79.4-35.5-79.4-79.4s35.5-79.4,79.4-79.4
				C295.3,168.3,330.8,203.8,330.8,249.2C330.8,247.8,330.8,247.8,330.8,249.2"/>
			<path class="st0" d="M320.9,391.1c-45.4,21.3-96.5,21.3-140.5,0c-18.4,24.1-34,51.1-46.8,79.4c73.8,38.3,160.3,38.3,232.7,0
				C356.3,442.1,340.7,415.2,320.9,391.1"/>
		</g>
	</g>
	<g id="Bogen_1_">
		<g>
			<g>
				<path id="SVGID_1_" class="st0" d="M0.2,249.2c0,66.7,27,129.1,73.8,175.9c12.8-28.4,29.8-56.7,49.7-80.9
					C69.8,273.3,84,174,154.9,121.5s170.2-38.3,221.3,32.6c44,56.7,44,136.2,0,192.9c19.9,25.5,36.9,52.5,49.7,80.9
					c97.9-97.9,99.3-256.8,0-353.3c-99.3-97.9-256.8-99.3-353.3,0C25.8,118.7-1.2,181.1,0.2,249.2"/>
			</g>
		</g>
	</g>
</g>
</svg>
